<svg width="25" height="19" viewBox="0 0 25 19" fill="none" xmlns="http://www.w3.org/2000/svg">
<path d="M23.9167 0.528101C22.9191 1.19809 21.8147 1.71052 20.6458 2.04567C20.0185 1.35881 19.1847 0.871976 18.2573 0.65102C17.3299 0.430065 16.3536 0.485645 15.4605 0.810243C14.5674 1.13484 13.8005 1.71279 13.2635 2.46594C12.7266 3.21908 12.4455 4.11108 12.4583 5.02128V6.01315C10.6277 6.05835 8.81383 5.67176 7.17813 4.88782C5.54244 4.10388 4.13575 2.94692 3.08333 1.51997C3.08333 1.51997 -1.08333 10.4468 8.29167 14.4143C6.14638 15.8009 3.59079 16.4962 1 16.3981C10.375 21.3574 21.8333 16.3981 21.8333 4.99153C21.8324 4.71524 21.8045 4.43964 21.75 4.16827C22.8131 3.16995 23.5634 1.90949 23.9167 0.528101V0.528101Z" stroke="white" stroke-width="1.04167" stroke-linecap="round" stroke-linejoin="round"/>
</svg>
