<svg width="135" height="26" viewBox="0 0 135 26" fill="none" xmlns="http://www.w3.org/2000/svg">
<path d="M5.01 25.5582V15.9282L0.27 1.25823H4.92L7.53 9.80823L9.96 1.25823H14.46L9.78 15.9282V25.5582H5.01ZM22.9362 25.8882C21.1562 25.8882 19.7462 25.5682 18.7062 24.9282C17.6662 24.2882 16.9162 23.3782 16.4562 22.1982C16.0162 20.9982 15.7962 19.5682 15.7962 17.9082V8.84823C15.7962 7.18823 16.0162 5.76823 16.4562 4.58823C16.9162 3.40823 17.6662 2.50823 18.7062 1.88823C19.7462 1.26823 21.1562 0.958226 22.9362 0.958226C24.7362 0.958226 26.1562 1.27823 27.1962 1.91823C28.2562 2.53823 29.0062 3.43823 29.4462 4.61823C29.9062 5.77823 30.1362 7.18823 30.1362 8.84823V17.9082C30.1362 19.5682 29.9062 20.9982 29.4462 22.1982C29.0062 23.3782 28.2562 24.2882 27.1962 24.9282C26.1562 25.5682 24.7362 25.8882 22.9362 25.8882ZM22.9362 22.3182C23.5762 22.3182 24.0462 22.1782 24.3462 21.8982C24.6462 21.5982 24.8462 21.2082 24.9462 20.7282C25.0462 20.2282 25.0962 19.6982 25.0962 19.1382V7.64823C25.0962 7.08823 25.0462 6.56823 24.9462 6.08823C24.8462 5.60823 24.6462 5.22823 24.3462 4.94823C24.0462 4.64823 23.5762 4.49823 22.9362 4.49823C22.3362 4.49823 21.8862 4.64823 21.5862 4.94823C21.2862 5.22823 21.0862 5.60823 20.9862 6.08823C20.8862 6.56823 20.8362 7.08823 20.8362 7.64823V19.1382C20.8362 19.6982 20.8762 20.2282 20.9562 20.7282C21.0562 21.2082 21.2562 21.5982 21.5562 21.8982C21.8562 22.1782 22.3162 22.3182 22.9362 22.3182ZM40.2813 25.8882C38.4413 25.8882 37.0113 25.5782 35.9913 24.9582C34.9713 24.3182 34.2513 23.4082 33.8313 22.2282C33.4313 21.0282 33.2313 19.5782 33.2313 17.8782V1.25823H38.1213V18.5682C38.1213 19.1682 38.1613 19.7582 38.2413 20.3382C38.3413 20.9182 38.5413 21.3882 38.8413 21.7482C39.1613 22.1082 39.6413 22.2882 40.2813 22.2882C40.9413 22.2882 41.4213 22.1082 41.7213 21.7482C42.0413 21.3882 42.2413 20.9182 42.3213 20.3382C42.4013 19.7582 42.4413 19.1682 42.4413 18.5682V1.25823H47.3313V17.8782C47.3313 19.5782 47.1213 21.0282 46.7013 22.2282C46.3013 23.4082 45.5913 24.3182 44.5713 24.9582C43.5513 25.5782 42.1213 25.8882 40.2813 25.8882ZM50.7851 25.5582V1.25823H57.0851C58.7251 1.25823 60.1251 1.44823 61.2851 1.82823C62.4651 2.18823 63.3651 2.83823 63.9851 3.77823C64.6251 4.71823 64.9451 6.01823 64.9451 7.67823C64.9451 8.67823 64.8551 9.56823 64.6751 10.3482C64.5151 11.1082 64.2151 11.7782 63.7751 12.3582C63.3551 12.9182 62.7551 13.3682 61.9751 13.7082L65.3351 25.5582H60.2651L57.4751 14.5482H55.7351V25.5582H50.7851ZM55.7351 11.6082H57.1751C57.9751 11.6082 58.6051 11.4782 59.0651 11.2182C59.5251 10.9582 59.8451 10.5682 60.0251 10.0482C60.2251 9.50823 60.3251 8.84823 60.3251 8.06823C60.3251 6.94823 60.1151 6.09823 59.6951 5.51823C59.2951 4.91823 58.5351 4.61823 57.4151 4.61823H55.7351V11.6082Z" fill="#A276FF"/>
<path d="M68.2453 25.5582V1.25823H73.6153V21.9282H79.1953V25.5582H68.2453ZM89.4752 25.9182C87.6552 25.9182 86.2152 25.5982 85.1552 24.9582C84.0952 24.3182 83.3352 23.3982 82.8752 22.1982C82.4152 20.9982 82.1852 19.5682 82.1852 17.9082V8.87823C82.1852 7.19823 82.4152 5.76823 82.8752 4.58823C83.3352 3.40823 84.0952 2.50823 85.1552 1.88823C86.2152 1.24823 87.6552 0.928226 89.4752 0.928226C91.3152 0.928226 92.7652 1.24823 93.8252 1.88823C94.9052 2.50823 95.6752 3.40823 96.1352 4.58823C96.5952 5.76823 96.8252 7.19823 96.8252 8.87823V17.9082C96.8252 19.5682 96.5952 20.9982 96.1352 22.1982C95.6752 23.3982 94.9052 24.3182 93.8252 24.9582C92.7652 25.5982 91.3152 25.9182 89.4752 25.9182ZM89.4752 22.1082C90.0352 22.1082 90.4452 21.9682 90.7052 21.6882C90.9652 21.4082 91.1352 21.0482 91.2152 20.6082C91.2952 20.1682 91.3352 19.7182 91.3352 19.2582V7.55823C91.3352 7.07823 91.2952 6.62823 91.2152 6.20823C91.1352 5.76823 90.9652 5.40823 90.7052 5.12823C90.4452 4.84823 90.0352 4.70823 89.4752 4.70823C88.9552 4.70823 88.5652 4.84823 88.3052 5.12823C88.0452 5.40823 87.8752 5.76823 87.7952 6.20823C87.7152 6.62823 87.6752 7.07823 87.6752 7.55823V19.2582C87.6752 19.7182 87.7052 20.1682 87.7652 20.6082C87.8452 21.0482 88.0052 21.4082 88.2452 21.6882C88.5052 21.9682 88.9152 22.1082 89.4752 22.1082ZM107.773 25.9182C106.093 25.9182 104.763 25.5682 103.783 24.8682C102.823 24.1682 102.133 23.1882 101.713 21.9282C101.313 20.6482 101.113 19.1782 101.113 17.5182V9.35823C101.113 7.63823 101.333 6.14823 101.773 4.88823C102.213 3.62823 102.963 2.65823 104.023 1.97823C105.103 1.27823 106.563 0.928226 108.403 0.928226C110.203 0.928226 111.613 1.22823 112.633 1.82823C113.673 2.42823 114.413 3.25823 114.853 4.31823C115.293 5.37823 115.513 6.61823 115.513 8.03823V9.59823H110.263V7.61823C110.263 7.09823 110.223 6.61823 110.143 6.17823C110.083 5.73823 109.923 5.38823 109.663 5.12823C109.423 4.84823 109.023 4.70823 108.463 4.70823C107.883 4.70823 107.463 4.86823 107.203 5.18823C106.943 5.48823 106.773 5.86823 106.693 6.32823C106.633 6.78823 106.603 7.26823 106.603 7.76823V19.0182C106.603 19.5582 106.653 20.0682 106.753 20.5482C106.873 21.0082 107.073 21.3882 107.353 21.6882C107.653 21.9682 108.073 22.1082 108.613 22.1082C109.173 22.1082 109.603 21.9582 109.903 21.6582C110.203 21.3582 110.413 20.9682 110.533 20.4882C110.653 20.0082 110.713 19.4982 110.713 18.9582V16.1082H108.523V12.9582H115.543V25.5582H112.003L111.703 23.5482C111.383 24.2282 110.913 24.7982 110.293 25.2582C109.673 25.6982 108.833 25.9182 107.773 25.9182ZM127.214 25.9182C125.394 25.9182 123.954 25.5982 122.894 24.9582C121.834 24.3182 121.074 23.3982 120.614 22.1982C120.154 20.9982 119.924 19.5682 119.924 17.9082V8.87823C119.924 7.19823 120.154 5.76823 120.614 4.58823C121.074 3.40823 121.834 2.50823 122.894 1.88823C123.954 1.24823 125.394 0.928226 127.214 0.928226C129.054 0.928226 130.504 1.24823 131.564 1.88823C132.644 2.50823 133.414 3.40823 133.874 4.58823C134.334 5.76823 134.564 7.19823 134.564 8.87823V17.9082C134.564 19.5682 134.334 20.9982 133.874 22.1982C133.414 23.3982 132.644 24.3182 131.564 24.9582C130.504 25.5982 129.054 25.9182 127.214 25.9182ZM127.214 22.1082C127.774 22.1082 128.184 21.9682 128.444 21.6882C128.704 21.4082 128.874 21.0482 128.954 20.6082C129.034 20.1682 129.074 19.7182 129.074 19.2582V7.55823C129.074 7.07823 129.034 6.62823 128.954 6.20823C128.874 5.76823 128.704 5.40823 128.444 5.12823C128.184 4.84823 127.774 4.70823 127.214 4.70823C126.694 4.70823 126.304 4.84823 126.044 5.12823C125.784 5.40823 125.614 5.76823 125.534 6.20823C125.454 6.62823 125.414 7.07823 125.414 7.55823V19.2582C125.414 19.7182 125.444 20.1682 125.504 20.6082C125.584 21.0482 125.744 21.4082 125.984 21.6882C126.244 21.9682 126.654 22.1082 127.214 22.1082Z" fill="white"/>
</svg>
